<?xml version="1.0" encoding="UTF-8" standalone="no"?>
<!DOCTYPE svg PUBLIC "-//W3C//DTD SVG 1.1//EN"
 "http://www.w3.org/Graphics/SVG/1.1/DTD/svg11.dtd">
<!-- Generated by graphviz version 2.44.1 (20201121.0304)
 -->
<!-- Title: G Pages: 1 -->
<svg width="905pt" height="791pt"
 viewBox="0.00 0.00 905.00 791.00" xmlns="http://www.w3.org/2000/svg" xmlns:xlink="http://www.w3.org/1999/xlink"><style>
  * {
    fill: transparent !important;
    stroke: rgb(255, 255, 255) !important;
    stroke-width: 1 !important;
  }
  polygon:not(.cluster *, .node *, .edge *, text) {
    stroke: transparent !important;
  }
  text {
    font-size: 10px !important;
    font-family: monospace !important;
    fill: rgb(255, 255, 255) !important;
    stroke: transparent !important;
    transform: translateY(-0.5em);
  }
</style>
<g id="graph0" class="graph" transform="scale(1 1) rotate(0) translate(4 787)">
<title>G</title>
<polygon fill="white" stroke="none" points="-4,4 -4,-787 901.48,-787 901.48,4 -4,4"/>
<!-- Core Packages -->
<g id="node1" class="node">
<title>Core Packages</title>
<polygon fill="lightblue" stroke="black" points="698.5,-751 420,-751 420,-715 698.5,-715 698.5,-751"/>
<text xml:space="preserve" text-anchor="middle" x="559.25" y="-730.2" font-family="Times,serif" font-size="14.00">Core Packages</text>
<text xml:space="preserve" text-anchor="middle" x="559.25" y="-719.7" font-family="Times,serif" font-size="14.00">(playwright&#45;core, playwright, etc.)</text>
</g>
<!-- Browser Distributions -->
<g id="node2" class="node">
<title>Browser Distributions</title>
<polygon fill="lightblue" stroke="black" points="218.5,-523 0,-523 0,-487 218.5,-487 218.5,-523"/>
<text xml:space="preserve" text-anchor="middle" x="109.25" y="-502.2" font-family="Times,serif" font-size="14.00">Browser Distributions</text>
<text xml:space="preserve" text-anchor="middle" x="109.25" y="-491.7" font-family="Times,serif" font-size="14.00">(chromium, firefox, webkit)</text>
</g>
<!-- Core Packages&#45;&gt;Browser Distributions -->
<g id="edge1" class="edge">
<title>Core Packages&#45;&gt;Browser Distributions</title>
<path fill="none" stroke="black" d="M524.69,-714.64C444.11,-674.18 243.86,-573.6 154.06,-528.51"/>
<polygon fill="black" stroke="black" points="155.79,-525.46 145.28,-524.1 152.65,-531.71 155.79,-525.46"/>
<text xml:space="preserve" text-anchor="middle" x="360.5" y="-610.95" font-family="Times,serif" font-size="14.00">support</text>
</g>
<!-- Tooling &amp; Extensions -->
<g id="node3" class="node">
<title>Tooling &amp; Extensions</title>
<polygon fill="lightblue" stroke="black" points="575.5,-523 237,-523 237,-487 575.5,-487 575.5,-523"/>
<text xml:space="preserve" text-anchor="middle" x="406.25" y="-502.2" font-family="Times,serif" font-size="14.00">Tooling &amp; Extensions</text>
<text xml:space="preserve" text-anchor="middle" x="406.25" y="-491.7" font-family="Times,serif" font-size="14.00">(html&#45;reporter, trace&#45;viewer, VS Code Ext.)</text>
</g>
<!-- Core Packages&#45;&gt;Tooling &amp; Extensions -->
<g id="edge2" class="edge">
<title>Core Packages&#45;&gt;Tooling &amp; Extensions</title>
<path fill="none" stroke="black" d="M547.5,-714.64C520.97,-675.45 456.26,-579.88 424.48,-532.93"/>
<polygon fill="black" stroke="black" points="427.39,-530.99 418.89,-524.67 421.6,-534.91 427.39,-530.99"/>
<text xml:space="preserve" text-anchor="middle" x="509" y="-610.95" font-family="Times,serif" font-size="14.00">used by</text>
</g>
<!-- Tests &amp; Docs -->
<g id="node5" class="node">
<title>Tests &amp; Docs</title>
<polygon fill="lightblue" stroke="black" points="754.25,-296 468.25,-296 468.25,-260 754.25,-260 754.25,-296"/>
<text xml:space="preserve" text-anchor="middle" x="611.25" y="-275.2" font-family="Times,serif" font-size="14.00">Tests &amp; Documentation</text>
<text xml:space="preserve" text-anchor="middle" x="611.25" y="-264.7" font-family="Times,serif" font-size="14.00">(tests/, docs/src/, CONTRIBUTING.md)</text>
</g>
<!-- Tooling &amp; Extensions&#45;&gt;Tests &amp; Docs -->
<g id="edge6" class="edge">
<title>Tooling &amp; Extensions&#45;&gt;Tests &amp; Docs</title>
<path fill="none" stroke="black" d="M415.82,-486.64C429.43,-462.78 455.91,-419.13 484.75,-386.75 513.24,-354.76 551.24,-323.63 578.13,-303.12"/>
<polygon fill="black" stroke="black" points="580.06,-306.05 585.94,-297.24 575.85,-300.46 580.06,-306.05"/>
<text xml:space="preserve" text-anchor="middle" x="541" y="-383.95" font-family="Times,serif" font-size="14.00">generates/views</text>
</g>
<!-- Development Utilities -->
<g id="node4" class="node">
<title>Development Utilities</title>
<polygon fill="lightblue" stroke="black" points="783,-68 609.5,-68 609.5,-32 783,-32 783,-68"/>
<text xml:space="preserve" text-anchor="middle" x="696.25" y="-47.2" font-family="Times,serif" font-size="14.00">Development Utilities</text>
<text xml:space="preserve" text-anchor="middle" x="696.25" y="-36.7" font-family="Times,serif" font-size="14.00">(utils/, build, lint)</text>
</g>
<!-- Development Utilities&#45;&gt;Core Packages -->
<g id="edge3" class="edge">
<title>Development Utilities&#45;&gt;Core Packages</title>
<path fill="none" stroke="black" d="M712.67,-68.34C730.35,-88.31 757.41,-123.01 768.25,-158.75 815.45,-314.34 799.37,-374.02 734.25,-523 700.5,-600.2 629.06,-671.11 588.67,-707.13"/>
<polygon fill="black" stroke="black" points="586.4,-704.47 581.2,-713.7 591.02,-709.72 586.4,-704.47"/>
<text xml:space="preserve" text-anchor="middle" x="841.23" y="-383.95" font-family="Times,serif" font-size="14.00">builds &amp; checks</text>
</g>
<!-- Tests &amp; Docs&#45;&gt;Core Packages -->
<g id="edge4" class="edge">
<title>Tests &amp; Docs&#45;&gt;Core Packages</title>
<path fill="none" stroke="black" d="M609.37,-296.46C605.05,-336.52 594.02,-438.11 584.25,-523 576.83,-587.48 567.67,-663.1 562.76,-703.36"/>
<polygon fill="black" stroke="black" points="559.3,-702.81 561.56,-713.16 566.25,-703.66 559.3,-702.81"/>
<text xml:space="preserve" text-anchor="middle" x="659.29" y="-496.95" font-family="Times,serif" font-size="14.00">tests &amp; defines API</text>
</g>
<!-- Tests &amp; Docs&#45;&gt;Development Utilities -->
<g id="edge5" class="edge">
<title>Tests &amp; Docs&#45;&gt;Development Utilities</title>
<path fill="none" stroke="black" d="M616.02,-259.55C622.54,-236.29 634.95,-193.97 648.25,-158.75 658.73,-131.02 672.7,-100.19 682.87,-78.64"/>
<polygon fill="black" stroke="black" points="686.01,-80.18 687.15,-69.65 679.69,-77.17 686.01,-80.18"/>
<text xml:space="preserve" text-anchor="middle" x="708.25" y="-155.95" font-family="Times,serif" font-size="14.00">uses for tooling</text>
</g>
</g>
</svg>
